<svg width="24" height="29" viewBox="0 0 24 29" fill="none" xmlns="http://www.w3.org/2000/svg">
<g filter="url(#filter0_d_11_24)">
<path d="M21.7099 18.6899L17.9999 15.0099C19.44 13.2143 20.1374 10.9352 19.9487 8.64121C19.76 6.34721 18.6996 4.21269 16.9854 2.67655C15.2713 1.14041 13.0337 0.319416 10.7328 0.382376C8.43194 0.445337 6.24263 1.38747 4.61505 3.01505C2.98747 4.64263 2.04534 6.83194 1.98237 9.13283C1.91941 11.4337 2.74041 13.6713 4.27655 15.3854C5.81269 17.0996 7.94721 18.16 10.2412 18.3487C12.5352 18.5374 14.8143 17.84 16.6099 16.3999L20.2899 20.0799C20.3829 20.1736 20.4935 20.248 20.6153 20.2988C20.7372 20.3496 20.8679 20.3757 20.9999 20.3757C21.1319 20.3757 21.2626 20.3496 21.3845 20.2988C21.5063 20.248 21.6169 20.1736 21.7099 20.0799C21.8901 19.8934 21.9909 19.6442 21.9909 19.3849C21.9909 19.1256 21.8901 18.8764 21.7099 18.6899ZM10.9999 16.3999C9.61544 16.3999 8.26206 15.9894 7.11091 15.2202C5.95977 14.451 5.06256 13.3578 4.53275 12.0787C4.00293 10.7996 3.86431 9.39214 4.13441 8.03427C4.4045 6.67641 5.07119 5.42913 6.05016 4.45016C7.02912 3.47119 8.27641 2.80451 9.63427 2.53441C10.9921 2.26431 12.3996 2.40294 13.6787 2.93275C14.9578 3.46256 16.051 4.35977 16.8202 5.51091C17.5894 6.66206 17.9999 8.01544 17.9999 9.39991C17.9999 11.2564 17.2624 13.0369 15.9497 14.3497C14.6369 15.6624 12.8564 16.3999 10.9999 16.3999Z" fill="url(#paint0_linear_11_24)"/>
<path d="M10.7466 0.881935C12.9196 0.822495 15.033 1.59815 16.6519 3.04893C18.2706 4.49962 19.2724 6.51538 19.4507 8.68174C19.6289 10.8483 18.97 13.0015 17.6099 14.6974L17.3286 15.048L17.6479 15.3653L21.3491 19.0372H21.3501C21.4402 19.1304 21.4907 19.2552 21.4907 19.3849C21.4907 19.5135 21.4408 19.6366 21.3521 19.7296C21.3061 19.7754 21.2518 19.8121 21.1919 19.837C21.131 19.8624 21.0655 19.8761 20.9995 19.8761C20.9336 19.876 20.8679 19.8623 20.8071 19.837C20.7464 19.8116 20.6914 19.7744 20.645 19.7276L20.6431 19.7267L16.9634 16.046L16.647 15.7296L16.2974 16.0099C14.6015 17.37 12.4483 18.0289 10.2817 17.8507C8.11538 17.6724 6.09962 16.6706 4.64893 15.0519C3.19815 13.433 2.42249 11.3196 2.48193 9.14658C2.5414 6.97353 3.4311 4.90542 4.96826 3.36826C6.50542 1.8311 8.57352 0.941398 10.7466 0.881935ZM13.8696 2.4708C12.4993 1.90326 10.9914 1.75468 9.53662 2.04404C8.08181 2.33345 6.74565 3.04791 5.69678 4.09678C4.64791 5.14565 3.93345 6.48181 3.64404 7.93662C3.35468 9.39136 3.50326 10.8993 4.0708 12.2696C4.63846 13.6401 5.60013 14.8117 6.8335 15.6358C8.06671 16.4598 9.51637 16.8994 10.9995 16.8995C12.9886 16.8995 14.8967 16.1097 16.3032 14.7032C17.7097 13.2967 18.4995 11.3886 18.4995 9.39951C18.4994 7.91638 18.0598 6.46671 17.2358 5.2335C16.4117 4.00013 15.2401 3.03846 13.8696 2.4708Z" stroke="black"/>
</g>
<defs>
<filter id="filter0_d_11_24" x="-2.021" y="0.379005" width="28.0118" height="27.9967" filterUnits="userSpaceOnUse" color-interpolation-filters="sRGB">
<feFlood flood-opacity="0" result="BackgroundImageFix"/>
<feColorMatrix in="SourceAlpha" type="matrix" values="0 0 0 0 0 0 0 0 0 0 0 0 0 0 0 0 0 0 127 0" result="hardAlpha"/>
<feOffset dy="4"/>
<feGaussianBlur stdDeviation="2"/>
<feComposite in2="hardAlpha" operator="out"/>
<feColorMatrix type="matrix" values="0 0 0 0 0 0 0 0 0 0 0 0 0 0 0 0 0 0 0.25 0"/>
<feBlend mode="normal" in2="BackgroundImageFix" result="effect1_dropShadow_11_24"/>
<feBlend mode="normal" in="SourceGraphic" in2="effect1_dropShadow_11_24" result="shape"/>
</filter>
<linearGradient id="paint0_linear_11_24" x1="1.979" y1="0.379005" x2="25.4288" y2="14.776" gradientUnits="userSpaceOnUse">
<stop stop-color="#F3F9FF"/>
<stop offset="1" stop-color="#F1F0FF"/>
</linearGradient>
</defs>
</svg>
